# xmcd
#
# Track frame offsets: 
#        182
#        14787
#        31577
#        47712
#        61177
#        78412
#        94582
#        106967
#        126185
#        142212
#        155970
#        174637
#
# Disc length: 2536 seconds
#
# Revision: 6
# Processed by: cddbd v1.5.2PL0 Copyright (c) Steve Scherf et al.
# Submitted via: ExactAudioCopy v1.3
#
DISCID=a209e60c
DTITLE=Truck Stop - Gegen den Wind
DYEAR=1996
DGENRE=Country
TTITLE0=Pack dein Herz in einen Koffer
TTITLE1=Alabama Moon
TTITLE2=Hey, kleiner Cowboy
TTITLE3=Wo ist das Feuer?
TTITLE4=Heimat ist überall
TTITLE5=Meine Frau macht Nachtschicht
TTITLE6=Cisco, Lucius, Erich, Uwe, Teddy und ich
TTITLE7=Zarte 17
TTITLE8=Gegen den Wind
TTITLE9=Augen zu und durch
TTITLE10=Route 66
TTITLE11=Das alte Eisen
EXTD=(c)1996 Polygram
EXTT0=
EXTT1=
EXTT2=
EXTT3=
EXTT4=
EXTT5=
EXTT6=
EXTT7=
EXTT8=
EXTT9=
EXTT10=
EXTT11=
PLAYORDER=
